<?xml version="1.0" encoding="UTF-8" standalone="no"?>
<!DOCTYPE svg PUBLIC "-//W3C//DTD SVG 1.1//EN" "http://www.w3.org/Graphics/SVG/1.1/DTD/svg11.dtd">
<svg width="100%" height="100%" viewBox="0 0 600 599" version="1.1" xmlns="http://www.w3.org/2000/svg" xmlns:xlink="http://www.w3.org/1999/xlink" xml:space="preserve" style="fill-rule:evenodd;clip-rule:evenodd;stroke-linejoin:round;stroke-miterlimit:1.41421;">
    <g id="Layer-1">
        <g>
            <path d="M252.37,251.2L221.492,251.2C213.991,251.2 207.616,252.2 202.115,253.95C196.74,255.825 192.239,258.451 188.614,261.951C185.114,265.451 182.363,269.577 180.613,274.327C178.863,279.078 177.988,284.453 177.988,290.329C177.988,303.58 181.363,313.831 188.114,321.207C194.864,328.582 205.991,332.208 221.367,332.208L252.37,332.208L252.37,251.2ZM221.492,376.837C203.865,376.837 188.614,374.712 175.738,370.461C162.861,366.211 152.235,360.21 143.735,352.71C135.359,345.084 129.108,335.958 124.983,325.332C120.857,314.706 118.857,303.08 118.857,290.329C118.857,278.578 120.857,267.577 124.858,257.451C128.858,247.325 134.984,238.449 143.36,230.948C151.735,223.447 162.361,217.572 175.238,213.321C188.114,209.071 203.615,206.946 221.617,206.946L311.626,206.946L311.626,462.22L252.37,462.22L252.37,376.962L221.492,376.962L221.492,376.837Z" style="fill-rule:nonzero;"/>
            <path d="M315.626,466.22L248.37,466.22L248.37,380.962L217.492,380.962L217.492,380.801L217.328,380.798L216.916,380.789L216.505,380.78L216.094,380.77L215.685,380.759L215.277,380.748L214.869,380.736L214.462,380.723L214.056,380.709L213.651,380.694L213.247,380.678L212.843,380.662L212.44,380.645L212.038,380.627L211.637,380.609L211.237,380.589L210.838,380.569L210.439,380.548L210.042,380.526L209.645,380.503L209.249,380.48L208.854,380.455L208.46,380.43L208.066,380.405L207.673,380.378L207.282,380.35L206.891,380.322L206.501,380.293L206.111,380.263L205.723,380.233L205.335,380.201L204.948,380.169L204.562,380.136L204.177,380.102L203.793,380.067L203.409,380.032L203.027,379.996L202.645,379.958L202.264,379.921L201.884,379.882L201.505,379.842L201.126,379.802L200.748,379.761L200.372,379.719L199.996,379.676L199.62,379.633L199.246,379.589L198.873,379.543L198.5,379.498L198.128,379.451L197.757,379.403L197.387,379.355L197.018,379.306L196.649,379.256L196.282,379.205L195.915,379.153L195.549,379.101L195.184,379.048L194.819,378.994L194.456,378.939L194.093,378.883L193.731,378.827L193.37,378.77L193.01,378.712L192.651,378.653L192.292,378.593L191.935,378.533L191.578,378.471L191.222,378.409L190.867,378.346L190.512,378.283L190.159,378.218L189.806,378.153L189.455,378.086L189.103,378.019L188.753,377.952L188.404,377.883L188.055,377.814L187.708,377.743L187.361,377.672L187.015,377.6L186.67,377.528L186.325,377.454L185.982,377.38L185.639,377.305L185.297,377.229L184.956,377.152L184.616,377.074L184.277,376.996L183.938,376.917L183.601,376.836L183.264,376.756L182.928,376.674L182.593,376.591L182.258,376.508L181.925,376.424L181.592,376.339L181.26,376.253L180.929,376.166L180.599,376.079L180.27,375.99L179.941,375.901L179.614,375.811L179.287,375.721L178.961,375.629L178.635,375.537L178.311,375.443L177.988,375.349L177.665,375.254L177.343,375.159L177.022,375.062L176.702,374.965L176.383,374.866L176.064,374.767L175.747,374.667L175.43,374.567L175.114,374.465L174.799,374.363L174.485,374.26L174.173,374.156L173.862,374.052L173.552,373.948L173.242,373.842L172.934,373.736L172.626,373.629L172.319,373.522L172.013,373.414L171.708,373.305L171.403,373.195L171.1,373.085L170.797,372.975L170.494,372.863L170.193,372.751L169.893,372.638L169.593,372.525L169.294,372.411L168.996,372.296L168.699,372.18L168.402,372.064L168.106,371.947L167.812,371.83L167.517,371.711L167.224,371.593L166.932,371.473L166.64,371.353L166.349,371.232L166.059,371.111L165.77,370.988L165.481,370.866L165.194,370.742L164.907,370.618L164.621,370.493L164.335,370.368L164.051,370.242L163.767,370.115L163.484,369.987L163.202,369.859L162.921,369.73L162.64,369.601L162.361,369.471L162.082,369.34L161.804,369.209L161.526,369.077L161.25,368.944L160.974,368.811L160.699,368.677L160.425,368.542L160.152,368.407L159.879,368.271L159.608,368.134L159.337,367.997L159.067,367.859L158.798,367.72L158.529,367.581L158.261,367.441L157.994,367.3L157.728,367.159L157.463,367.017L157.199,366.875L156.935,366.732L156.672,366.588L156.41,366.444L156.149,366.299L155.888,366.153L155.628,366.007L155.369,365.86L155.111,365.712L154.854,365.564L154.598,365.415L154.342,365.265L154.087,365.115L153.833,364.964L153.58,364.813L153.327,364.661L153.075,364.508L152.824,364.355L152.574,364.201L152.325,364.046L152.077,363.891L151.829,363.735L151.582,363.579L151.336,363.421L151.09,363.264L150.846,363.105L150.602,362.946L150.359,362.787L150.117,362.626L149.876,362.465L149.635,362.304L149.396,362.142L149.157,361.979L148.919,361.815L148.681,361.651L148.445,361.487L148.209,361.321L147.974,361.156L147.74,360.989L147.507,360.822L147.274,360.654L147.042,360.486L146.812,360.317L146.581,360.147L146.352,359.977L146.124,359.806L145.896,359.635L145.669,359.463L145.443,359.29L145.218,359.117L144.993,358.943L144.769,358.768L144.546,358.593L144.324,358.418L144.103,358.241L143.882,358.064L143.663,357.887L143.444,357.709L143.226,357.53L143.009,357.351L142.792,357.171L142.576,356.99L142.361,356.809L142.147,356.627L141.934,356.445L141.722,356.262L141.51,356.078L141.299,355.894L141.065,355.689L140.836,355.479L140.631,355.29L140.426,355.101L140.222,354.91L140.019,354.72L139.817,354.528L139.615,354.336L139.415,354.143L139.215,353.95L139.016,353.756L138.817,353.562L138.62,353.367L138.423,353.171L138.227,352.975L138.032,352.778L137.838,352.581L137.644,352.383L137.452,352.184L137.26,351.985L137.069,351.785L136.878,351.584L136.689,351.383L136.5,351.182L136.313,350.98L136.125,350.777L135.939,350.573L135.754,350.369L135.569,350.165L135.385,349.959L135.202,349.754L135.02,349.547L134.839,349.34L134.658,349.133L134.478,348.925L134.299,348.716L134.121,348.506L133.944,348.297L133.768,348.086L133.592,347.875L133.417,347.663L133.243,347.451L133.07,347.238L132.897,347.025L132.726,346.811L132.555,346.596L132.385,346.381L132.216,346.165L132.047,345.949L131.88,345.731L131.713,345.514L131.547,345.296L131.382,345.077L131.218,344.858L131.054,344.638L130.892,344.417L130.73,344.196L130.569,343.974L130.409,343.752L130.25,343.529L130.091,343.306L129.933,343.082L129.776,342.857L129.62,342.632L129.465,342.407L129.311,342.18L129.157,341.953L129.004,341.726L128.853,341.498L128.701,341.269L128.551,341.04L128.402,340.81L128.253,340.58L128.105,340.349L127.958,340.118L127.812,339.886L127.667,339.653L127.522,339.42L127.379,339.186L127.236,338.952L127.094,338.717L126.953,338.481L126.812,338.245L126.673,338.008L126.534,337.771L126.396,337.533L126.259,337.295L126.123,337.056L125.988,336.817L125.853,336.577L125.719,336.336L125.587,336.095L125.455,335.853L125.323,335.611L125.193,335.368L125.063,335.125L124.935,334.881L124.807,334.636L124.68,334.391L124.553,334.145L124.428,333.899L124.303,333.652L124.18,333.405L124.057,333.157L123.935,332.909L123.813,332.66L123.693,332.41L123.573,332.16L123.455,331.909L123.337,331.658L123.22,331.406L123.103,331.154L122.988,330.901L122.873,330.648L122.76,330.393L122.647,330.139L122.535,329.884L122.423,329.628L122.313,329.372L122.203,329.115L122.095,328.858L121.987,328.6L121.88,328.342L121.773,328.083L121.668,327.823L121.563,327.563L121.46,327.303L121.357,327.041L121.255,326.78L121.154,326.519L121.054,326.257L120.954,325.995L120.856,325.733L120.758,325.47L120.661,325.207L120.565,324.944L120.47,324.68L120.376,324.416L120.282,324.151L120.189,323.886L120.097,323.621L120.006,323.355L119.916,323.089L119.826,322.823L119.738,322.556L119.65,322.289L119.563,322.021L119.477,321.753L119.391,321.485L119.307,321.216L119.223,320.947L119.14,320.678L119.058,320.408L118.976,320.138L118.896,319.868L118.816,319.597L118.737,319.325L118.659,319.054L118.582,318.782L118.505,318.51L118.43,318.237L118.355,317.964L118.281,317.69L118.207,317.416L118.135,317.142L118.063,316.868L117.992,316.593L117.922,316.317L117.853,316.042L117.785,315.766L117.717,315.489L117.65,315.212L117.584,314.935L117.519,314.658L117.455,314.38L117.391,314.102L117.328,313.823L117.266,313.544L117.205,313.265L117.145,312.985L117.085,312.705L117.027,312.424L116.969,312.143L116.911,311.862L116.855,311.58L116.799,311.298L116.745,311.016L116.691,310.733L116.637,310.45L116.585,310.167L116.533,309.883L116.483,309.599L116.433,309.314L116.383,309.029L116.335,308.744L116.287,308.458L116.24,308.172L116.194,307.886L116.149,307.599L116.105,307.312L116.061,307.025L116.018,306.737L115.976,306.448L115.935,306.16L115.894,305.871L115.854,305.581L115.815,305.292L115.777,305.001L115.74,304.711L115.703,304.42L115.667,304.129L115.632,303.837L115.598,303.545L115.565,303.253L115.532,302.96L115.5,302.667L115.469,302.374L115.439,302.08L115.409,301.786L115.38,301.491L115.352,301.196L115.325,300.901L115.299,300.605L115.273,300.309L115.248,300.013L115.224,299.716L115.2,299.419L115.178,299.121L115.156,298.823L115.135,298.525L115.115,298.226L115.095,297.928L115.077,297.628L115.059,297.328L115.042,297.028L115.025,296.728L115.009,296.427L114.995,296.125L114.981,295.824L114.967,295.522L114.955,295.219L114.943,294.916L114.932,294.613L114.922,294.31L114.912,294.003L114.895,293.397L114.882,292.786L114.871,292.174L114.863,291.561L114.859,290.946L114.857,290.329L114.859,289.758L114.863,289.187L114.871,288.617L114.882,288.049L114.895,287.481L114.912,286.915L114.932,286.35L114.955,285.785L114.981,285.222L115.01,284.659L115.042,284.098L115.077,283.541L115.096,283.258L115.115,282.979L115.135,282.7L115.156,282.421L115.178,282.142L115.2,281.864L115.224,281.586L115.248,281.308L115.273,281.03L115.298,280.753L115.325,280.476L115.352,280.199L115.38,279.923L115.408,279.647L115.438,279.371L115.468,279.095L115.499,278.82L115.53,278.545L115.563,278.27L115.596,277.995L115.63,277.721L115.665,277.447L115.7,277.173L115.737,276.9L115.774,276.627L115.812,276.354L115.85,276.081L115.89,275.809L115.93,275.537L115.971,275.265L116.013,274.994L116.055,274.723L116.098,274.452L116.142,274.181L116.187,273.911L116.233,273.641L116.279,273.371L116.326,273.101L116.374,272.832L116.422,272.563L116.472,272.295L116.522,272.026L116.573,271.758L116.625,271.491L116.677,271.223L116.73,270.956L116.784,270.689L116.839,270.423L116.895,270.156L116.951,269.89L117.008,269.625L117.066,269.359L117.125,269.094L117.184,268.829L117.244,268.565L117.305,268.3L117.367,268.037L117.429,267.773L117.493,267.51L117.557,267.247L117.621,266.984L117.687,266.721L117.753,266.459L117.82,266.198L117.888,265.936L117.957,265.675L118.026,265.414L118.097,265.153L118.168,264.893L118.239,264.633L118.312,264.373L118.385,264.114L118.459,263.855L118.534,263.596L118.61,263.338L118.686,263.08L118.763,262.822L118.841,262.564L118.92,262.307L118.999,262.05L119.08,261.794L119.161,261.538L119.242,261.282L119.325,261.026L119.408,260.771L119.492,260.516L119.577,260.261L119.663,260.007L119.749,259.753L119.837,259.499L119.925,259.246L120.013,258.993L120.103,258.74L120.193,258.488L120.284,258.235L120.376,257.984L120.468,257.732L120.562,257.481L120.656,257.23L120.751,256.98L120.847,256.73L120.943,256.48L121.04,256.23L121.138,255.981L121.237,255.731L121.338,255.482L121.439,255.233L121.54,254.984L121.643,254.736L121.746,254.488L121.851,254.24L121.956,253.993L122.062,253.747L122.169,253.501L122.276,253.256L122.385,253.011L122.494,252.766L122.604,252.522L122.715,252.278L122.827,252.035L122.94,251.792L123.053,251.55L123.168,251.308L123.283,251.067L123.399,250.826L123.516,250.586L123.634,250.346L123.752,250.106L123.871,249.868L123.992,249.629L124.113,249.391L124.235,249.154L124.357,248.917L124.481,248.68L124.605,248.444L124.731,248.208L124.857,247.973L124.984,247.739L125.112,247.505L125.24,247.271L125.37,247.038L125.5,246.805L125.631,246.573L125.763,246.341L125.896,246.11L126.03,245.879L126.165,245.649L126.3,245.419L126.436,245.19L126.573,244.962L126.711,244.733L126.85,244.506L126.99,244.278L127.13,244.052L127.271,243.825L127.414,243.6L127.556,243.374L127.7,243.15L127.845,242.925L127.991,242.702L128.137,242.478L128.284,242.256L128.432,242.033L128.581,241.812L128.731,241.591L128.882,241.37L129.033,241.15L129.185,240.93L129.339,240.711L129.493,240.492L129.648,240.274L129.803,240.056L129.96,239.839L130.117,239.623L130.275,239.407L130.434,239.191L130.594,238.976L130.755,238.762L130.917,238.548L131.079,238.334L131.243,238.121L131.407,237.909L131.572,237.697L131.738,237.485L131.904,237.275L132.072,237.064L132.24,236.854L132.409,236.645L132.58,236.436L132.751,236.228L132.922,236.02L133.095,235.813L133.268,235.607L133.443,235.4L133.618,235.195L133.794,234.99L133.971,234.785L134.148,234.581L134.327,234.378L134.506,234.175L134.687,233.973L134.868,233.771L135.05,233.569L135.232,233.369L135.416,233.169L135.6,232.969L135.786,232.77L135.972,232.571L136.159,232.373L136.347,232.175L136.535,231.979L136.725,231.782L136.915,231.586L137.106,231.391L137.298,231.196L137.491,231.002L137.685,230.808L137.879,230.615L138.075,230.422L138.271,230.23L138.468,230.039L138.666,229.848L138.865,229.657L139.065,229.467L139.265,229.278L139.466,229.089L139.669,228.901L139.871,228.714L140.075,228.526L140.28,228.34L140.486,228.154L140.692,227.968L140.9,227.783L141.108,227.598L141.318,227.414L141.529,227.23L141.74,227.047L141.952,226.865L142.165,226.684L142.379,226.503L142.593,226.322L142.809,226.143L143.025,225.964L143.243,225.785L143.461,225.608L143.679,225.431L143.899,225.254L144.12,225.079L144.341,224.904L144.563,224.729L144.786,224.555L145.01,224.382L145.235,224.21L145.46,224.038L145.687,223.867L145.914,223.697L146.142,223.527L146.371,223.358L146.6,223.189L146.831,223.021L147.062,222.854L147.294,222.687L147.527,222.522L147.761,222.356L147.996,222.192L148.231,222.028L148.467,221.865L148.705,221.702L148.942,221.54L149.181,221.379L149.421,221.218L149.661,221.058L149.902,220.899L150.144,220.74L150.387,220.582L150.631,220.425L150.875,220.268L151.121,220.112L151.367,219.957L151.614,219.802L151.862,219.648L152.11,219.495L152.36,219.342L152.61,219.19L152.861,219.038L153.113,218.888L153.365,218.738L153.619,218.588L153.873,218.439L154.128,218.291L154.384,218.143L154.641,217.996L154.898,217.85L155.157,217.705L155.416,217.56L155.676,217.415L155.936,217.272L156.198,217.129L156.46,216.987L156.723,216.845L156.988,216.704L157.252,216.563L157.518,216.424L157.784,216.285L158.052,216.146L158.32,216.008L158.588,215.871L158.858,215.735L159.129,215.599L159.4,215.464L159.672,215.329L159.945,215.195L160.218,215.062L160.493,214.929L160.768,214.797L161.044,214.666L161.321,214.535L161.599,214.405L161.877,214.276L162.157,214.147L162.437,214.019L162.718,213.892L162.999,213.765L163.282,213.639L163.565,213.513L163.849,213.388L164.134,213.264L164.42,213.14L164.706,213.018L164.994,212.895L165.282,212.774L165.571,212.653L165.861,212.532L166.151,212.412L166.442,212.293L166.735,212.175L167.027,212.057L167.321,211.94L167.616,211.823L167.911,211.707L168.207,211.592L168.504,211.477L168.802,211.363L169.1,211.25L169.399,211.137L169.7,211.025L170,210.914L170.302,210.803L170.605,210.693L170.908,210.583L171.212,210.474L171.517,210.366L171.822,210.259L172.129,210.151L172.436,210.045L172.744,209.939L173.053,209.834L173.363,209.73L173.673,209.626L173.985,209.523L174.299,209.419L174.615,209.317L174.931,209.215L175.249,209.115L175.567,209.015L175.886,208.916L176.207,208.817L176.528,208.72L176.85,208.623L177.173,208.527L177.497,208.432L177.821,208.338L178.147,208.245L178.474,208.153L178.801,208.061L179.13,207.97L179.459,207.88L179.789,207.791L180.12,207.703L180.452,207.615L180.786,207.528L181.119,207.443L181.454,207.358L181.79,207.273L182.127,207.19L182.464,207.107L182.803,207.026L183.142,206.945L183.482,206.865L183.823,206.786L184.165,206.707L184.508,206.63L184.852,206.553L185.197,206.477L185.543,206.402L185.889,206.327L186.237,206.254L186.585,206.181L186.935,206.109L187.285,206.038L187.636,205.968L187.988,205.898L188.341,205.83L188.695,205.762L189.05,205.695L189.405,205.629L189.762,205.564L190.119,205.499L190.478,205.435L190.837,205.372L191.197,205.31L191.558,205.249L191.92,205.189L192.283,205.129L192.647,205.07L193.012,205.012L193.377,204.955L193.744,204.899L194.111,204.843L194.479,204.788L194.848,204.734L195.218,204.681L195.589,204.629L195.961,204.577L196.334,204.526L196.708,204.476L197.082,204.427L197.458,204.379L197.834,204.332L198.211,204.285L198.589,204.239L198.968,204.194L199.348,204.15L199.729,204.106L200.111,204.063L200.494,204.022L200.877,203.98L201.261,203.94L201.647,203.901L202.033,203.862L202.42,203.824L202.808,203.787L203.197,203.751L203.587,203.716L203.977,203.681L204.369,203.647L204.761,203.614L205.155,203.582L205.549,203.55L205.944,203.52L206.34,203.49L206.737,203.461L207.135,203.433L207.533,203.405L207.933,203.378L208.333,203.353L208.735,203.328L209.137,203.303L209.54,203.28L209.944,203.257L210.349,203.235L210.755,203.214L211.162,203.194L211.569,203.175L211.978,203.156L212.387,203.138L212.797,203.121L213.208,203.105L213.62,203.089L214.033,203.075L214.447,203.061L214.862,203.048L215.277,203.035L215.694,203.024L216.111,203.013L216.529,203.003L216.949,202.994L217.369,202.986L217.79,202.978L218.211,202.972L218.634,202.966L219.058,202.96L219.482,202.956L219.907,202.953L220.334,202.95L220.761,202.948L221.189,202.947L221.616,202.946L315.626,202.946L315.626,466.22ZM307.626,458.22L307.626,210.946L221.619,210.946L221.203,210.947L220.79,210.948L220.378,210.95L219.967,210.952L219.557,210.956L219.147,210.96L218.739,210.965L218.331,210.971L217.925,210.977L217.52,210.984L217.115,210.992L216.711,211.001L216.309,211.011L215.907,211.021L215.506,211.032L215.106,211.044L214.708,211.057L214.31,211.07L213.913,211.084L213.517,211.099L213.122,211.115L212.728,211.131L212.335,211.148L211.943,211.166L211.551,211.185L211.161,211.204L210.772,211.224L210.384,211.245L209.996,211.267L209.61,211.289L209.224,211.313L208.84,211.337L208.457,211.361L208.074,211.387L207.693,211.413L207.312,211.44L206.932,211.468L206.554,211.496L206.176,211.526L205.799,211.556L205.424,211.587L205.049,211.618L204.675,211.65L204.302,211.683L203.93,211.717L203.559,211.752L203.19,211.787L202.821,211.823L202.453,211.86L202.086,211.898L201.72,211.936L201.355,211.975L200.991,212.015L200.627,212.056L200.265,212.097L199.904,212.139L199.544,212.182L199.185,212.225L198.826,212.27L198.469,212.315L198.113,212.361L197.758,212.407L197.403,212.455L197.05,212.503L196.698,212.552L196.346,212.601L195.996,212.652L195.646,212.703L195.298,212.754L194.951,212.807L194.604,212.86L194.259,212.914L193.914,212.969L193.571,213.025L193.228,213.081L192.886,213.138L192.546,213.196L192.206,213.254L191.868,213.314L191.53,213.374L191.194,213.435L190.858,213.496L190.523,213.558L190.19,213.621L189.857,213.685L189.525,213.749L189.195,213.815L188.865,213.881L188.536,213.947L188.208,214.015L187.882,214.083L187.556,214.152L187.231,214.221L186.907,214.292L186.585,214.363L186.263,214.435L185.942,214.507L185.622,214.581L185.303,214.655L184.986,214.729L184.669,214.805L184.353,214.881L184.038,214.958L183.724,215.036L183.412,215.114L183.1,215.194L182.789,215.274L182.479,215.354L182.17,215.436L181.862,215.518L181.556,215.6L181.25,215.684L180.945,215.768L180.641,215.853L180.338,215.939L180.036,216.026L179.736,216.113L179.436,216.201L179.137,216.289L178.839,216.379L178.542,216.469L178.246,216.56L177.951,216.651L177.658,216.743L177.365,216.836L177.073,216.93L176.782,217.024L176.492,217.12L176.201,217.216L175.91,217.313L175.62,217.411L175.331,217.51L175.043,217.608L174.756,217.708L174.469,217.808L174.184,217.908L173.899,218.01L173.615,218.111L173.332,218.213L173.05,218.316L172.769,218.42L172.488,218.523L172.209,218.628L171.93,218.733L171.652,218.838L171.375,218.944L171.099,219.051L170.823,219.158L170.549,219.266L170.275,219.374L170.003,219.483L169.73,219.593L169.459,219.703L169.189,219.813L168.92,219.924L168.651,220.036L168.383,220.148L168.117,220.261L167.851,220.374L167.585,220.488L167.321,220.602L167.058,220.717L166.795,220.832L166.533,220.948L166.272,221.065L166.012,221.182L165.753,221.299L165.495,221.418L165.237,221.536L164.981,221.655L164.725,221.775L164.47,221.896L164.215,222.017L163.962,222.138L163.71,222.26L163.458,222.382L163.207,222.505L162.957,222.629L162.708,222.753L162.46,222.878L162.213,223.003L161.966,223.129L161.72,223.255L161.475,223.382L161.231,223.51L160.988,223.637L160.746,223.766L160.504,223.895L160.264,224.025L160.024,224.155L159.785,224.285L159.547,224.416L159.309,224.548L159.073,224.68L158.837,224.813L158.602,224.947L158.369,225.08L158.135,225.215L157.903,225.35L157.672,225.485L157.441,225.621L157.211,225.758L156.982,225.895L156.754,226.033L156.527,226.171L156.3,226.31L156.075,226.449L155.85,226.589L155.626,226.729L155.403,226.87L155.181,227.011L154.959,227.153L154.739,227.296L154.519,227.439L154.3,227.582L154.082,227.726L153.864,227.871L153.648,228.016L153.432,228.162L153.217,228.308L153.003,228.455L152.79,228.602L152.578,228.75L152.366,228.898L152.156,229.047L151.946,229.196L151.737,229.346L151.529,229.497L151.321,229.648L151.114,229.799L150.909,229.952L150.704,230.104L150.499,230.257L150.296,230.411L150.094,230.565L149.892,230.72L149.691,230.875L149.491,231.031L149.292,231.188L149.093,231.344L148.896,231.502L148.699,231.66L148.503,231.818L148.308,231.978L148.113,232.137L147.92,232.297L147.727,232.458L147.535,232.619L147.344,232.781L147.154,232.943L146.964,233.106L146.776,233.269L146.588,233.433L146.401,233.597L146.215,233.762L146.029,233.928L145.843,234.095L145.659,234.262L145.475,234.429L145.292,234.597L145.11,234.766L144.928,234.935L144.748,235.104L144.568,235.274L144.389,235.444L144.211,235.615L144.033,235.786L143.857,235.958L143.681,236.13L143.506,236.302L143.331,236.475L143.158,236.649L142.985,236.823L142.814,236.997L142.642,237.172L142.472,237.347L142.303,237.523L142.134,237.699L141.966,237.875L141.799,238.052L141.633,238.23L141.467,238.408L141.302,238.586L141.138,238.765L140.975,238.944L140.813,239.124L140.651,239.304L140.49,239.485L140.33,239.666L140.171,239.847L140.013,240.029L139.855,240.212L139.698,240.394L139.542,240.578L139.386,240.761L139.232,240.946L139.078,241.13L138.925,241.315L138.773,241.501L138.621,241.687L138.47,241.873L138.32,242.06L138.171,242.247L138.022,242.435L137.875,242.623L137.728,242.812L137.582,243.001L137.436,243.191L137.292,243.381L137.148,243.571L137.005,243.762L136.863,243.954L136.721,244.145L136.58,244.338L136.44,244.53L136.301,244.724L136.162,244.917L136.025,245.111L135.888,245.306L135.751,245.501L135.616,245.696L135.481,245.892L135.347,246.088L135.214,246.285L135.081,246.482L134.95,246.68L134.819,246.878L134.688,247.077L134.559,247.276L134.43,247.475L134.302,247.675L134.175,247.875L134.049,248.076L133.923,248.277L133.798,248.479L133.674,248.681L133.55,248.884L133.428,249.087L133.306,249.29L133.184,249.494L133.064,249.699L132.944,249.904L132.825,250.109L132.707,250.315L132.589,250.521L132.472,250.728L132.356,250.935L132.241,251.143L132.126,251.351L132.013,251.559L131.9,251.768L131.787,251.978L131.676,252.187L131.565,252.398L131.455,252.609L131.345,252.82L131.236,253.032L131.129,253.244L131.021,253.456L130.915,253.669L130.809,253.883L130.704,254.097L130.6,254.311L130.496,254.526L130.394,254.742L130.291,254.958L130.19,255.174L130.089,255.391L129.99,255.608L129.89,255.825L129.792,256.043L129.694,256.262L129.597,256.481L129.501,256.701L129.406,256.92L129.311,257.141L129.217,257.362L129.123,257.583L129.031,257.805L128.939,258.027L128.848,258.25L128.757,258.473L128.668,258.697L128.578,258.921L128.49,259.147L128.402,259.373L128.314,259.599L128.227,259.826L128.141,260.053L128.056,260.281L127.971,260.508L127.887,260.736L127.804,260.965L127.722,261.193L127.64,261.422L127.558,261.652L127.478,261.881L127.398,262.111L127.319,262.341L127.241,262.572L127.163,262.803L127.086,263.034L127.01,263.265L126.934,263.497L126.859,263.729L126.785,263.961L126.711,264.194L126.638,264.427L126.566,264.66L126.495,264.894L126.424,265.127L126.354,265.362L126.284,265.596L126.216,265.831L126.148,266.066L126.08,266.302L126.014,266.537L125.948,266.773L125.883,267.01L125.818,267.246L125.754,267.483L125.691,267.721L125.629,267.958L125.567,268.196L125.506,268.434L125.445,268.673L125.386,268.912L125.327,269.151L125.268,269.39L125.211,269.63L125.154,269.87L125.098,270.111L125.042,270.351L124.987,270.592L124.933,270.834L124.88,271.075L124.827,271.317L124.775,271.559L124.724,271.802L124.673,272.045L124.623,272.288L124.574,272.531L124.525,272.775L124.477,273.019L124.43,273.263L124.384,273.508L124.338,273.753L124.293,273.998L124.248,274.244L124.205,274.49L124.162,274.736L124.119,274.983L124.078,275.229L124.037,275.477L123.996,275.724L123.957,275.972L123.918,276.22L123.88,276.468L123.842,276.717L123.806,276.966L123.77,277.215L123.734,277.465L123.7,277.714L123.666,277.965L123.632,278.215L123.6,278.466L123.568,278.717L123.537,278.969L123.506,279.22L123.476,279.472L123.447,279.725L123.419,279.977L123.391,280.23L123.364,280.483L123.338,280.737L123.312,280.991L123.288,281.245L123.263,281.499L123.24,281.754L123.217,282.009L123.195,282.264L123.174,282.52L123.153,282.776L123.133,283.032L123.114,283.289L123.095,283.546L123.077,283.803L123.06,284.058L123.028,284.576L122.998,285.093L122.971,285.611L122.947,286.131L122.926,286.651L122.908,287.173L122.893,287.696L122.88,288.22L122.87,288.746L122.863,289.272L122.859,289.8L122.857,290.33L122.859,290.906L122.863,291.482L122.87,292.056L122.88,292.627L122.893,293.198L122.909,293.769L122.917,294.049L122.927,294.333L122.937,294.615L122.948,294.898L122.96,295.179L122.972,295.461L122.985,295.741L122.999,296.022L123.014,296.302L123.029,296.582L123.045,296.861L123.062,297.14L123.079,297.418L123.097,297.696L123.116,297.973L123.136,298.25L123.156,298.527L123.177,298.803L123.198,299.079L123.221,299.354L123.244,299.629L123.268,299.903L123.292,300.177L123.317,300.451L123.343,300.724L123.37,300.997L123.397,301.269L123.425,301.541L123.454,301.813L123.484,302.084L123.514,302.354L123.545,302.624L123.577,302.894L123.609,303.164L123.642,303.432L123.676,303.701L123.71,303.969L123.746,304.237L123.781,304.504L123.818,304.771L123.855,305.037L123.894,305.303L123.932,305.569L123.972,305.834L124.012,306.099L124.053,306.363L124.095,306.627L124.137,306.891L124.18,307.154L124.224,307.417L124.269,307.679L124.314,307.941L124.36,308.202L124.406,308.463L124.454,308.724L124.502,308.984L124.551,309.244L124.6,309.504L124.651,309.763L124.702,310.021L124.753,310.28L124.806,310.537L124.859,310.795L124.913,311.052L124.967,311.309L125.023,311.565L125.079,311.821L125.135,312.076L125.193,312.331L125.251,312.586L125.31,312.84L125.37,313.094L125.43,313.347L125.491,313.601L125.553,313.853L125.615,314.105L125.679,314.357L125.743,314.609L125.807,314.86L125.873,315.111L125.939,315.361L126.006,315.611L126.073,315.86L126.142,316.11L126.211,316.358L126.28,316.607L126.351,316.855L126.422,317.103L126.494,317.35L126.567,317.597L126.64,317.843L126.714,318.089L126.789,318.335L126.865,318.58L126.941,318.825L127.018,319.07L127.096,319.314L127.174,319.558L127.253,319.802L127.333,320.045L127.414,320.287L127.495,320.53L127.578,320.772L127.66,321.013L127.744,321.255L127.828,321.496L127.913,321.736L127.999,321.976L128.086,322.216L128.173,322.455L128.261,322.695L128.35,322.933L128.439,323.171L128.53,323.409L128.621,323.647L128.712,323.884L128.804,324.12L128.897,324.356L128.991,324.591L129.085,324.825L129.18,325.058L129.275,325.292L129.372,325.524L129.469,325.756L129.567,325.988L129.665,326.218L129.765,326.449L129.865,326.679L129.965,326.908L130.067,327.137L130.169,327.365L130.272,327.592L130.375,327.819L130.48,328.046L130.585,328.272L130.691,328.497L130.797,328.722L130.904,328.947L131.012,329.17L131.121,329.394L131.231,329.616L131.341,329.839L131.452,330.06L131.563,330.281L131.676,330.502L131.789,330.722L131.902,330.941L132.017,331.16L132.132,331.379L132.248,331.597L132.365,331.814L132.482,332.031L132.6,332.247L132.719,332.463L132.839,332.678L132.959,332.893L133.08,333.107L133.202,333.32L133.324,333.533L133.448,333.746L133.572,333.958L133.696,334.169L133.822,334.38L133.948,334.591L134.075,334.801L134.202,335.01L134.331,335.219L134.46,335.427L134.59,335.635L134.72,335.842L134.851,336.049L134.983,336.255L135.116,336.461L135.249,336.666L135.384,336.87L135.518,337.075L135.654,337.278L135.79,337.481L135.928,337.684L136.065,337.886L136.204,338.087L136.343,338.288L136.483,338.489L136.624,338.689L136.766,338.888L136.908,339.087L137.051,339.286L137.194,339.483L137.339,339.681L137.484,339.878L137.63,340.074L137.777,340.27L137.924,340.465L138.072,340.66L138.221,340.854L138.37,341.048L138.521,341.241L138.672,341.434L138.824,341.626L138.976,341.818L139.13,342.009L139.284,342.2L139.438,342.39L139.594,342.58L139.75,342.769L139.907,342.957L140.065,343.145L140.224,343.333L140.383,343.52L140.543,343.707L140.703,343.893L140.865,344.079L141.027,344.264L141.19,344.448L141.354,344.632L141.518,344.816L141.684,344.999L141.849,345.182L142.016,345.364L142.183,345.545L142.352,345.726L142.521,345.907L142.69,346.087L142.861,346.267L143.032,346.446L143.204,346.624L143.377,346.802L143.55,346.98L143.724,347.157L143.899,347.333L144.075,347.509L144.252,347.685L144.429,347.86L144.607,348.034L144.786,348.209L144.965,348.382L145.145,348.555L145.326,348.728L145.508,348.9L145.691,349.071L145.874,349.242L146.058,349.413L146.243,349.583L146.405,349.731L146.571,349.877L146.761,350.043L146.952,350.208L147.143,350.373L147.335,350.537L147.528,350.701L147.722,350.864L147.916,351.027L148.111,351.189L148.307,351.351L148.504,351.512L148.702,351.673L148.9,351.833L149.099,351.993L149.299,352.152L149.499,352.311L149.7,352.469L149.902,352.626L150.105,352.783L150.309,352.94L150.513,353.096L150.719,353.252L150.925,353.407L151.131,353.561L151.339,353.715L151.547,353.869L151.756,354.022L151.966,354.174L152.176,354.326L152.388,354.478L152.6,354.629L152.813,354.779L153.027,354.929L153.241,355.078L153.456,355.227L153.672,355.375L153.889,355.523L154.107,355.67L154.325,355.817L154.544,355.963L154.764,356.109L154.985,356.254L155.207,356.398L155.429,356.542L155.652,356.686L155.876,356.829L156.101,356.971L156.326,357.113L156.553,357.254L156.78,357.395L157.008,357.536L157.236,357.675L157.466,357.815L157.696,357.953L157.927,358.091L158.159,358.229L158.392,358.366L158.625,358.503L158.859,358.639L159.094,358.774L159.33,358.909L159.567,359.043L159.804,359.177L160.042,359.31L160.281,359.443L160.521,359.575L160.762,359.707L161.003,359.838L161.246,359.968L161.489,360.098L161.733,360.228L161.977,360.356L162.223,360.485L162.469,360.612L162.717,360.74L162.964,360.866L163.213,360.992L163.463,361.118L163.713,361.243L163.964,361.367L164.216,361.491L164.469,361.614L164.723,361.737L164.977,361.859L165.233,361.981L165.489,362.102L165.746,362.222L166.003,362.342L166.262,362.461L166.521,362.58L166.782,362.698L167.042,362.816L167.304,362.933L167.567,363.049L167.831,363.165L168.095,363.281L168.36,363.395L168.626,363.51L168.893,363.623L169.16,363.736L169.429,363.849L169.698,363.961L169.968,364.072L170.239,364.183L170.511,364.293L170.784,364.402L171.057,364.511L171.331,364.619L171.606,364.727L171.882,364.834L172.159,364.941L172.437,365.047L172.715,365.153L172.994,365.257L173.274,365.362L173.555,365.465L173.837,365.568L174.12,365.671L174.403,365.773L174.687,365.874L174.973,365.975L175.259,366.075L175.545,366.174L175.833,366.273L176.121,366.371L176.411,366.469L176.701,366.566L176.992,366.663L177.283,366.758L177.574,366.853L177.865,366.946L178.158,367.04L178.452,367.132L178.747,367.224L179.042,367.315L179.339,367.405L179.636,367.494L179.934,367.583L180.234,367.671L180.534,367.758L180.835,367.845L181.136,367.931L181.439,368.016L181.743,368.1L182.048,368.184L182.353,368.266L182.659,368.349L182.967,368.43L183.275,368.511L183.584,368.591L183.894,368.67L184.205,368.748L184.517,368.826L184.83,368.903L185.143,368.979L185.458,369.055L185.773,369.13L186.09,369.204L186.407,369.277L186.725,369.35L187.044,369.422L187.364,369.493L187.685,369.563L188.007,369.633L188.33,369.702L188.653,369.77L188.978,369.837L189.303,369.904L189.63,369.97L189.957,370.035L190.285,370.1L190.614,370.163L190.944,370.226L191.275,370.289L191.607,370.35L191.939,370.411L192.273,370.471L192.607,370.53L192.943,370.589L193.279,370.646L193.616,370.703L193.955,370.76L194.294,370.815L194.634,370.87L194.974,370.924L195.316,370.977L195.659,371.03L196.002,371.082L196.347,371.133L196.692,371.183L197.039,371.233L197.386,371.282L197.734,371.33L198.083,371.377L198.433,371.424L198.784,371.469L199.136,371.514L199.488,371.559L199.842,371.602L200.196,371.645L200.552,371.687L200.908,371.729L201.265,371.769L201.623,371.809L201.982,371.848L202.342,371.886L202.703,371.924L203.065,371.961L203.427,371.997L203.791,372.032L204.155,372.067L204.521,372.1L204.887,372.134L205.254,372.166L205.622,372.197L205.991,372.228L206.361,372.258L206.732,372.287L207.104,372.316L207.476,372.344L207.85,372.371L208.224,372.397L208.599,372.422L208.976,372.447L209.353,372.471L209.731,372.494L210.11,372.517L210.49,372.538L210.87,372.559L211.252,372.58L211.634,372.599L212.018,372.618L212.403,372.636L212.788,372.653L213.174,372.669L213.561,372.685L213.949,372.7L214.338,372.714L214.728,372.727L215.118,372.74L215.51,372.751L215.902,372.762L216.296,372.773L216.69,372.782L217.085,372.791L217.482,372.799L217.879,372.806L218.276,372.813L218.675,372.818L219.075,372.823L219.476,372.828L219.877,372.831L220.28,372.834L220.683,372.836L221.087,372.837L225.492,372.841L225.492,372.962L256.37,372.962L256.37,458.22L307.626,458.22ZM256.37,336.208L221.364,336.208L220.993,336.208L220.62,336.205L220.249,336.202L219.878,336.197L219.51,336.191L219.142,336.183L218.776,336.174L218.412,336.164L218.049,336.152L217.687,336.139L217.327,336.124L216.968,336.108L216.611,336.091L216.255,336.072L215.901,336.052L215.547,336.03L215.196,336.007L214.845,335.982L214.497,335.956L214.149,335.929L213.803,335.9L213.458,335.87L213.115,335.839L212.773,335.805L212.433,335.771L212.094,335.735L211.756,335.698L211.42,335.659L211.085,335.619L210.752,335.577L210.42,335.534L210.089,335.489L209.76,335.443L209.432,335.396L209.106,335.347L208.781,335.296L208.457,335.244L208.135,335.191L207.815,335.136L207.495,335.079L207.177,335.022L206.861,334.962L206.546,334.901L206.232,334.839L205.92,334.775L205.609,334.71L205.299,334.643L204.991,334.575L204.684,334.505L204.379,334.433L204.075,334.36L203.773,334.286L203.472,334.21L203.172,334.132L202.874,334.053L202.577,333.973L202.282,333.891L201.988,333.807L201.695,333.722L201.404,333.635L201.115,333.547L200.826,333.457L200.539,333.365L200.254,333.272L199.97,333.178L199.688,333.082L199.406,332.984L199.127,332.884L198.848,332.783L198.572,332.681L198.296,332.577L198.023,332.471L197.75,332.364L197.479,332.255L197.21,332.144L196.942,332.032L196.675,331.918L196.41,331.802L196.146,331.685L195.884,331.567L195.623,331.446L195.364,331.324L195.107,331.2L194.851,331.075L194.596,330.948L194.343,330.82L194.091,330.689L193.841,330.557L193.592,330.424L193.345,330.289L193.1,330.152L192.856,330.013L192.614,329.873L192.373,329.731L192.133,329.587L191.896,329.442L191.66,329.295L191.425,329.146L191.192,328.996L190.961,328.844L190.731,328.69L190.503,328.535L190.276,328.378L190.052,328.219L189.828,328.059L189.607,327.897L189.387,327.733L189.168,327.567L188.952,327.4L188.737,327.231L188.524,327.061L188.312,326.889L188.102,326.715L187.894,326.539L187.688,326.362L187.483,326.183L187.28,326.003L187.079,325.82L186.879,325.637L186.681,325.451L186.485,325.264L186.291,325.075L186.099,324.885L185.908,324.693L185.719,324.499L185.532,324.303L185.347,324.106L185.165,323.909L184.988,323.714L184.813,323.519L184.639,323.323L184.467,323.125L184.296,322.926L184.127,322.727L183.959,322.526L183.792,322.323L183.627,322.12L183.463,321.915L183.301,321.71L183.14,321.503L182.98,321.295L182.822,321.086L182.665,320.875L182.51,320.664L182.356,320.451L182.203,320.237L182.052,320.022L181.902,319.806L181.754,319.589L181.607,319.371L181.461,319.151L181.317,318.93L181.174,318.709L181.033,318.486L180.893,318.262L180.755,318.037L180.618,317.811L180.482,317.583L180.348,317.355L180.215,317.125L180.084,316.895L179.954,316.663L179.825,316.43L179.698,316.196L179.573,315.961L179.448,315.725L179.326,315.488L179.204,315.25L179.084,315.011L178.966,314.77L178.849,314.529L178.733,314.287L178.619,314.043L178.506,313.799L178.395,313.553L178.285,313.306L178.176,313.058L178.069,312.81L177.964,312.56L177.859,312.309L177.757,312.057L177.655,311.804L177.555,311.55L177.457,311.295L177.36,311.039L177.264,310.782L177.17,310.524L177.077,310.265L176.985,310.005L176.895,309.744L176.807,309.482L176.719,309.219L176.633,308.955L176.549,308.69L176.466,308.424L176.384,308.156L176.304,307.888L176.225,307.619L176.148,307.349L176.072,307.078L175.997,306.806L175.924,306.533L175.852,306.259L175.782,305.983L175.713,305.707L175.645,305.43L175.579,305.152L175.514,304.873L175.45,304.593L175.388,304.312L175.327,304.03L175.268,303.747L175.21,303.463L175.153,303.178L175.098,302.892L175.044,302.605L174.992,302.318L174.94,302.029L174.891,301.739L174.842,301.448L174.795,301.156L174.749,300.864L174.705,300.57L174.662,300.275L174.62,299.979L174.58,299.683L174.541,299.385L174.503,299.087L174.467,298.787L174.432,298.486L174.398,298.185L174.366,297.882L174.335,297.579L174.305,297.274L174.277,296.969L174.25,296.663L174.225,296.355L174.2,296.047L174.177,295.738L174.156,295.427L174.135,295.116L174.116,294.804L174.099,294.49L174.082,294.176L174.067,293.861L174.054,293.545L174.041,293.228L174.03,292.91L174.02,292.591L174.012,292.27L174.005,291.949L173.999,291.627L173.994,291.304L173.991,290.98L173.989,290.655L173.988,290.329L173.989,290.035L173.991,289.742L173.995,289.45L173.999,289.158L174.006,288.867L174.013,288.576L174.022,288.287L174.032,287.997L174.044,287.709L174.057,287.421L174.071,287.134L174.087,286.847L174.105,286.561L174.123,286.276L174.143,285.991L174.165,285.707L174.187,285.424L174.211,285.142L174.237,284.86L174.264,284.579L174.292,284.298L174.322,284.019L174.353,283.74L174.386,283.461L174.42,283.184L174.455,282.907L174.492,282.63L174.53,282.355L174.57,282.08L174.611,281.806L174.653,281.533L174.697,281.26L174.742,280.988L174.789,280.717L174.837,280.447L174.887,280.177L174.938,279.908L174.99,279.64L175.044,279.372L175.099,279.106L175.156,278.84L175.214,278.575L175.274,278.31L175.335,278.047L175.397,277.784L175.461,277.522L175.527,277.261L175.593,277L175.662,276.741L175.731,276.482L175.802,276.224L175.875,275.967L175.949,275.71L176.025,275.455L176.101,275.2L176.18,274.946L176.26,274.693L176.341,274.44L176.424,274.189L176.508,273.938L176.594,273.689L176.681,273.44L176.77,273.192L176.86,272.944L176.953,272.696L177.047,272.448L177.143,272.201L177.241,271.955L177.34,271.71L177.441,271.466L177.543,271.223L177.647,270.981L177.753,270.74L177.86,270.5L177.969,270.261L178.08,270.024L178.192,269.787L178.305,269.551L178.42,269.316L178.537,269.083L178.655,268.85L178.775,268.618L178.896,268.388L179.019,268.158L179.143,267.93L179.269,267.703L179.396,267.476L179.525,267.251L179.655,267.027L179.786,266.804L179.919,266.581L180.054,266.36L180.19,266.14L180.327,265.922L180.466,265.704L180.606,265.487L180.748,265.271L180.891,265.056L181.035,264.843L181.181,264.631L181.328,264.419L181.476,264.209L181.626,264L181.777,263.791L181.93,263.584L182.084,263.378L182.239,263.173L182.395,262.97L182.553,262.767L182.712,262.565L182.872,262.365L183.034,262.165L183.197,261.967L183.361,261.77L183.526,261.574L183.693,261.379L183.861,261.185L184.03,260.992L184.2,260.8L184.372,260.609L184.544,260.42L184.718,260.231L184.893,260.043L185.069,259.857L185.247,259.672L185.425,259.488L185.605,259.305L185.812,259.097L186.029,258.889L186.223,258.706L186.418,258.524L186.615,258.344L186.814,258.165L187.013,257.988L187.214,257.812L187.417,257.638L187.621,257.465L187.826,257.294L188.032,257.124L188.24,256.956L188.45,256.789L188.66,256.623L188.872,256.46L189.085,256.297L189.3,256.136L189.516,255.976L189.733,255.819L189.952,255.662L190.172,255.507L190.393,255.353L190.615,255.201L190.839,255.05L191.064,254.901L191.291,254.753L191.518,254.607L191.747,254.462L191.977,254.319L192.209,254.176L192.441,254.036L192.675,253.897L192.91,253.759L193.147,253.623L193.384,253.488L193.623,253.354L193.863,253.222L194.105,253.092L194.347,252.962L194.591,252.835L194.836,252.708L195.082,252.583L195.33,252.459L195.578,252.337L195.828,252.216L196.079,252.096L196.331,251.978L196.584,251.862L196.839,251.746L197.095,251.632L197.352,251.519L197.61,251.408L197.869,251.298L198.129,251.189L198.391,251.081L198.654,250.975L198.918,250.871L199.183,250.767L199.449,250.665L199.717,250.564L199.985,250.464L200.255,250.366L200.526,250.269L200.85,250.155L201.182,250.051L201.461,249.964L201.743,249.879L202.025,249.794L202.309,249.711L202.594,249.63L202.881,249.549L203.169,249.47L203.458,249.392L203.748,249.316L204.04,249.24L204.333,249.166L204.627,249.093L204.923,249.022L205.22,248.952L205.519,248.883L205.818,248.815L206.119,248.749L206.422,248.684L206.725,248.62L207.031,248.558L207.337,248.497L207.645,248.437L207.954,248.379L208.265,248.322L208.577,248.266L208.89,248.212L209.205,248.159L209.521,248.107L209.838,248.057L210.157,248.008L210.477,247.961L210.799,247.915L211.122,247.87L211.447,247.827L211.773,247.785L212.1,247.744L212.429,247.705L212.759,247.668L213.091,247.632L213.424,247.597L213.758,247.563L214.094,247.531L214.432,247.501L214.77,247.472L215.111,247.444L215.453,247.418L215.796,247.393L216.141,247.37L216.487,247.348L216.835,247.328L217.184,247.309L217.534,247.292L217.887,247.276L218.24,247.262L218.596,247.249L218.952,247.238L219.311,247.228L219.67,247.219L220.032,247.212L220.395,247.207L220.759,247.203L221.125,247.201L221.488,247.2L256.37,247.2L256.37,336.208ZM221.497,255.2L221.158,255.201L220.826,255.203L220.495,255.206L220.166,255.211L219.839,255.218L219.514,255.225L219.19,255.234L218.868,255.244L218.548,255.256L218.229,255.269L217.912,255.283L217.597,255.299L217.283,255.316L216.971,255.334L216.661,255.353L216.352,255.374L216.045,255.396L215.739,255.42L215.436,255.444L215.133,255.47L214.833,255.497L214.534,255.526L214.236,255.555L213.94,255.586L213.646,255.618L213.353,255.652L213.062,255.686L212.773,255.722L212.485,255.759L212.199,255.797L211.914,255.837L211.63,255.877L211.349,255.919L211.068,255.962L210.789,256.006L210.512,256.051L210.236,256.098L209.962,256.145L209.689,256.194L209.418,256.244L209.148,256.294L208.88,256.347L208.613,256.4L208.347,256.454L208.083,256.509L207.82,256.566L207.559,256.623L207.299,256.682L207.041,256.742L206.784,256.802L206.528,256.864L206.274,256.927L206.021,256.991L205.77,257.056L205.52,257.122L205.271,257.189L205.023,257.257L204.777,257.326L204.532,257.396L204.289,257.468L204.047,257.54L203.806,257.613L203.566,257.687L203.381,257.745L203.202,257.808L202.973,257.89L202.746,257.973L202.519,258.057L202.294,258.142L202.071,258.228L201.848,258.314L201.628,258.402L201.408,258.491L201.19,258.58L200.974,258.671L200.759,258.762L200.545,258.854L200.332,258.948L200.121,259.042L199.912,259.137L199.703,259.233L199.496,259.33L199.291,259.428L199.087,259.527L198.884,259.626L198.682,259.727L198.482,259.829L198.284,259.931L198.086,260.035L197.89,260.139L197.696,260.245L197.502,260.351L197.31,260.458L197.119,260.567L196.93,260.676L196.742,260.786L196.555,260.897L196.37,261.009L196.186,261.122L196.003,261.236L195.821,261.351L195.641,261.467L195.462,261.584L195.285,261.701L195.108,261.82L194.933,261.94L194.759,262.061L194.587,262.182L194.416,262.305L194.245,262.429L194.077,262.554L193.909,262.679L193.743,262.806L193.578,262.934L193.414,263.062L193.251,263.192L193.09,263.323L192.93,263.454L192.771,263.587L192.613,263.721L192.456,263.856L192.301,263.992L192.146,264.129L191.994,264.266L191.842,264.405L191.691,264.546L191.541,264.687L191.417,264.806L191.297,264.927L191.152,265.075L191.008,265.223L190.865,265.372L190.723,265.523L190.582,265.673L190.442,265.825L190.303,265.977L190.166,266.13L190.029,266.284L189.894,266.438L189.76,266.593L189.626,266.749L189.494,266.906L189.363,267.063L189.234,267.222L189.105,267.381L188.977,267.54L188.851,267.701L188.725,267.862L188.601,268.024L188.478,268.186L188.356,268.35L188.235,268.514L188.115,268.679L187.997,268.844L187.879,269.011L187.763,269.178L187.648,269.346L187.534,269.515L187.421,269.684L187.309,269.854L187.198,270.025L187.089,270.197L186.981,270.369L186.874,270.542L186.768,270.716L186.663,270.891L186.56,271.066L186.458,271.243L186.357,271.42L186.257,271.597L186.158,271.776L186.06,271.956L185.964,272.136L185.869,272.317L185.775,272.498L185.682,272.681L185.591,272.864L185.501,273.048L185.411,273.233L185.324,273.419L185.237,273.605L185.152,273.792L185.068,273.981L184.985,274.169L184.903,274.359L184.823,274.55L184.744,274.741L184.666,274.933L184.589,275.126L184.514,275.32L184.44,275.515L184.367,275.711L184.294,275.909L184.223,276.109L184.152,276.31L184.083,276.512L184.015,276.715L183.947,276.919L183.881,277.124L183.816,277.33L183.753,277.537L183.69,277.744L183.628,277.953L183.568,278.163L183.508,278.373L183.45,278.585L183.393,278.797L183.337,279.011L183.282,279.225L183.228,279.44L183.175,279.657L183.123,279.874L183.073,280.092L183.024,280.311L182.975,280.531L182.928,280.752L182.882,280.974L182.837,281.197L182.794,281.42L182.751,281.645L182.71,281.87L182.669,282.097L182.63,282.324L182.592,282.553L182.555,282.782L182.519,283.012L182.485,283.243L182.451,283.475L182.419,283.708L182.388,283.942L182.358,284.176L182.329,284.412L182.302,284.648L182.275,284.886L182.25,285.124L182.225,285.363L182.202,285.603L182.181,285.844L182.16,286.086L182.14,286.329L182.122,286.572L182.105,286.817L182.089,287.062L182.074,287.308L182.06,287.555L182.048,287.803L182.037,288.052L182.027,288.302L182.018,288.552L182.01,288.803L182.003,289.056L181.998,289.309L181.994,289.563L181.991,289.817L181.989,290.073L181.988,290.33L181.989,290.623L181.991,290.916L181.994,291.208L181.998,291.498L182.003,291.787L182.009,292.075L182.017,292.362L182.026,292.648L182.036,292.932L182.047,293.215L182.059,293.497L182.072,293.778L182.087,294.057L182.103,294.336L182.12,294.613L182.138,294.889L182.157,295.163L182.177,295.437L182.198,295.709L182.221,295.98L182.245,296.25L182.27,296.519L182.296,296.786L182.323,297.052L182.351,297.317L182.38,297.581L182.411,297.844L182.443,298.105L182.476,298.365L182.509,298.624L182.544,298.882L182.581,299.139L182.618,299.394L182.656,299.648L182.696,299.901L182.737,300.153L182.778,300.404L182.821,300.653L182.865,300.901L182.91,301.148L182.957,301.394L183.004,301.639L183.052,301.882L183.102,302.125L183.152,302.366L183.204,302.606L183.257,302.844L183.311,303.082L183.366,303.318L183.422,303.553L183.479,303.787L183.537,304.02L183.597,304.252L183.657,304.483L183.718,304.712L183.781,304.94L183.845,305.167L183.909,305.393L183.975,305.618L184.042,305.841L184.11,306.063L184.179,306.285L184.249,306.505L184.32,306.724L184.392,306.942L184.466,307.158L184.54,307.374L184.615,307.588L184.692,307.801L184.769,308.013L184.848,308.224L184.928,308.434L185.008,308.643L185.09,308.851L185.173,309.057L185.257,309.263L185.342,309.467L185.428,309.67L185.515,309.872L185.603,310.073L185.692,310.273L185.782,310.472L185.873,310.67L185.965,310.866L186.058,311.062L186.153,311.256L186.248,311.45L186.344,311.642L186.442,311.833L186.54,312.024L186.64,312.213L186.741,312.401L186.842,312.588L186.945,312.774L187.049,312.959L187.153,313.143L187.259,313.326L187.366,313.508L187.474,313.689L187.583,313.869L187.693,314.047L187.804,314.225L187.916,314.402L188.029,314.578L188.143,314.753L188.259,314.926L188.375,315.099L188.492,315.271L188.611,315.442L188.73,315.612L188.851,315.781L188.972,315.949L189.095,316.116L189.219,316.282L189.344,316.447L189.47,316.611L189.597,316.774L189.725,316.936L189.854,317.097L189.984,317.258L190.115,317.417L190.248,317.575L190.381,317.733L190.516,317.889L190.652,318.045L190.788,318.2L190.926,318.354L191.064,318.505L191.2,318.652L191.336,318.797L191.473,318.94L191.612,319.083L191.752,319.224L191.894,319.364L192.037,319.503L192.181,319.641L192.327,319.778L192.474,319.914L192.623,320.048L192.773,320.182L192.925,320.315L193.078,320.446L193.233,320.577L193.389,320.706L193.547,320.834L193.706,320.961L193.866,321.088L194.029,321.213L194.192,321.337L194.358,321.46L194.524,321.582L194.693,321.703L194.863,321.823L195.034,321.942L195.207,322.06L195.381,322.176L195.557,322.292L195.735,322.407L195.914,322.52L196.095,322.633L196.278,322.745L196.462,322.855L196.648,322.964L196.835,323.073L197.024,323.18L197.215,323.286L197.407,323.392L197.601,323.496L197.796,323.599L197.994,323.701L198.192,323.802L198.393,323.902L198.595,324.001L198.799,324.099L199.005,324.196L199.212,324.291L199.421,324.386L199.631,324.48L199.844,324.572L200.058,324.663L200.273,324.754L200.49,324.843L200.709,324.931L200.93,325.018L201.153,325.104L201.377,325.189L201.603,325.272L201.831,325.355L202.06,325.437L202.291,325.517L202.524,325.596L202.758,325.674L202.995,325.751L203.233,325.827L203.472,325.902L203.714,325.976L203.957,326.048L204.202,326.119L204.448,326.19L204.697,326.259L204.947,326.327L205.199,326.393L205.452,326.459L205.708,326.523L205.965,326.587L206.223,326.649L206.484,326.71L206.746,326.769L207.01,326.828L207.276,326.885L207.544,326.942L207.813,326.997L208.084,327.051L208.357,327.103L208.631,327.155L208.907,327.205L209.185,327.254L209.465,327.302L209.746,327.349L210.029,327.394L210.314,327.438L210.6,327.481L210.889,327.523L211.179,327.564L211.471,327.603L211.764,327.641L212.059,327.678L212.356,327.714L212.655,327.748L212.955,327.782L213.258,327.814L213.561,327.844L213.867,327.874L214.174,327.902L214.483,327.929L214.794,327.955L215.107,327.98L215.421,328.003L215.737,328.025L216.054,328.046L216.374,328.066L216.695,328.084L217.017,328.101L217.342,328.117L217.668,328.131L217.996,328.145L218.325,328.157L218.656,328.168L218.989,328.177L219.324,328.185L219.66,328.192L219.998,328.198L220.338,328.202L220.68,328.206L221.023,328.208L221.371,328.208L248.37,328.208L248.37,255.2L221.497,255.2Z"/>
        </g>
        <g>
            <path d="M311.626,331.458L317.752,331.333C323.502,331.333 336.253,316.832 340.129,311.331L397.634,227.948C400.76,223.448 404.385,220.322 408.385,218.697C412.386,217.072 417.386,216.197 423.137,216.197L474.642,216.197L399.009,319.332C396.384,323.082 393.509,326.207 390.634,328.583C387.758,331.083 384.758,333.083 381.758,334.708C386.133,336.333 390.259,338.584 393.884,341.459C397.509,344.334 400.885,348.085 404.01,352.96L481.142,471.346L428.262,471.346C424.887,471.346 422.012,471.096 419.636,470.596C417.261,470.096 415.136,469.471 413.386,468.471C411.636,467.596 410.136,466.346 408.885,465.096C407.635,463.721 406.385,462.221 405.26,460.47C405.26,460.47 367.881,398.089 358.881,389.214C348.755,379.213 341.129,375.462 331.503,376.337L311.376,376.337L312.001,471.346L252.37,471.346L252.37,216.322L311.626,216.322L311.626,331.458Z" style="fill-rule:nonzero;"/>
            <path d="M317.691,327.333L317.732,327.333L317.737,327.332L317.745,327.331L317.755,327.33L317.768,327.328L317.783,327.325L317.801,327.321L317.821,327.317L317.843,327.312L317.867,327.306L317.894,327.299L317.923,327.292L317.953,327.283L317.986,327.273L318.02,327.263L318.057,327.251L318.095,327.238L318.135,327.225L318.177,327.21L318.22,327.194L318.265,327.177L318.311,327.158L318.359,327.139L318.409,327.119L318.46,327.097L318.513,327.074L318.566,327.05L318.622,327.025L318.671,327.002L318.795,326.943L318.917,326.882L319.043,326.817L319.173,326.748L319.308,326.674L319.446,326.596L319.588,326.513L319.733,326.426L319.882,326.335L320.034,326.24L320.189,326.14L320.347,326.037L320.507,325.93L320.67,325.819L320.835,325.704L321.003,325.586L321.173,325.464L321.345,325.339L321.518,325.21L321.694,325.078L321.871,324.942L322.051,324.803L322.231,324.662L322.413,324.517L322.597,324.369L322.782,324.219L322.968,324.066L323.155,323.91L323.343,323.751L323.533,323.59L323.723,323.427L323.914,323.261L324.106,323.093L324.299,322.923L324.492,322.75L324.686,322.576L324.88,322.399L325.075,322.221L325.271,322.04L325.466,321.858L325.662,321.675L325.858,321.489L326.055,321.302L326.251,321.114L326.448,320.924L326.644,320.733L326.84,320.541L327.037,320.348L327.233,320.153L327.429,319.958L327.624,319.761L327.82,319.564L328.014,319.366L328.209,319.167L328.403,318.967L328.596,318.767L328.789,318.567L328.981,318.366L329.172,318.164L329.363,317.963L329.552,317.761L329.741,317.559L329.928,317.359L330.302,316.952L330.671,316.549L331.035,316.146L331.394,315.746L331.747,315.348L332.095,314.952L332.436,314.56L332.77,314.172L333.098,313.789L333.418,313.411L333.729,313.039L334.033,312.673L334.328,312.314L334.613,311.963L334.889,311.62L335.155,311.287L335.41,310.963L335.654,310.649L335.887,310.346L336.107,310.055L336.316,309.777L336.511,309.512L336.692,309.262L336.853,309.036L394.349,225.666L394.511,225.434L394.675,225.203L394.84,224.974L395.005,224.748L395.172,224.523L395.34,224.301L395.509,224.08L395.678,223.861L395.849,223.644L396.021,223.429L396.194,223.216L396.368,223.005L396.543,222.796L396.719,222.589L396.897,222.384L397.075,222.181L397.254,221.98L397.435,221.782L397.616,221.585L397.798,221.39L397.982,221.197L398.167,221.006L398.352,220.817L398.539,220.631L398.727,220.446L398.916,220.264L399.106,220.083L399.297,219.905L399.489,219.729L399.682,219.555L399.877,219.383L400.072,219.213L400.268,219.045L400.466,218.88L400.665,218.717L400.864,218.556L401.065,218.397L401.267,218.24L401.47,218.086L401.674,217.934L401.879,217.784L402.085,217.636L402.292,217.491L402.501,217.348L402.71,217.207L402.92,217.069L403.131,216.933L403.344,216.799L403.558,216.668L403.772,216.539L403.988,216.412L404.204,216.288L404.422,216.166L404.64,216.047L404.86,215.93L405.081,215.816L405.302,215.704L405.524,215.594L405.748,215.487L405.973,215.383L406.198,215.281L406.424,215.182L406.651,215.085L406.877,214.992L407.097,214.904L407.315,214.818L407.534,214.734L407.755,214.651L407.977,214.569L408.2,214.489L408.425,214.411L408.651,214.334L408.878,214.258L409.106,214.183L409.336,214.11L409.566,214.039L409.798,213.968L410.032,213.899L410.266,213.832L410.502,213.766L410.738,213.701L410.976,213.638L411.216,213.576L411.456,213.515L411.698,213.456L411.94,213.398L412.184,213.342L412.429,213.286L412.675,213.233L412.923,213.18L413.171,213.129L413.421,213.08L413.672,213.031L413.924,212.984L414.177,212.939L414.431,212.895L414.687,212.852L414.943,212.81L415.2,212.77L415.459,212.731L415.719,212.694L415.98,212.658L416.242,212.623L416.505,212.59L416.769,212.558L417.034,212.527L417.301,212.498L417.568,212.47L417.837,212.443L418.106,212.418L418.377,212.394L418.649,212.372L418.922,212.351L419.195,212.331L419.47,212.312L419.746,212.295L420.023,212.28L420.301,212.265L420.58,212.252L420.86,212.241L421.141,212.23L421.423,212.222L421.707,212.214L421.991,212.208L422.276,212.203L422.562,212.2L422.849,212.198L423.132,212.197L482.536,212.197L402.258,321.665L402.154,321.814L402.021,322.001L401.889,322.187L401.755,322.372L401.621,322.556L401.487,322.739L401.353,322.921L401.218,323.103L401.083,323.283L400.947,323.463L400.811,323.641L400.674,323.818L400.538,323.995L400.4,324.171L400.263,324.345L400.125,324.519L399.987,324.691L399.848,324.863L399.709,325.034L399.57,325.204L399.431,325.372L399.291,325.54L399.151,325.707L399.01,325.873L398.869,326.038L398.728,326.201L398.587,326.364L398.445,326.526L398.303,326.687L398.161,326.847L398.018,327.005L397.875,327.163L397.732,327.32L397.589,327.476L397.445,327.631L397.301,327.784L397.157,327.937L397.013,328.089L396.868,328.239L396.723,328.389L396.578,328.538L396.432,328.685L396.287,328.832L396.141,328.977L395.995,329.122L395.849,329.265L395.702,329.408L395.555,329.549L395.409,329.689L395.261,329.829L395.114,329.967L394.966,330.104L394.819,330.24L394.671,330.375L394.523,330.509L394.375,330.642L394.226,330.774L394.078,330.904L393.929,331.034L393.78,331.163L393.631,331.29L393.481,331.417L393.332,331.542L393.219,331.636L392.966,331.854L392.672,332.104L392.378,332.35L392.083,332.593L391.787,332.833L391.491,333.07L391.195,333.304L390.897,333.535L390.599,333.762L390.301,333.987L390.091,334.143L390.248,334.231L390.455,334.348L390.661,334.465L390.867,334.584L391.072,334.703L391.276,334.824L391.48,334.946L391.683,335.068L391.886,335.192L392.088,335.317L392.29,335.443L392.491,335.57L392.691,335.698L392.89,335.826L393.09,335.956L393.288,336.087L393.486,336.219L393.683,336.352L393.879,336.487L394.075,336.622L394.27,336.758L394.465,336.895L394.658,337.033L394.851,337.173L395.044,337.313L395.235,337.455L395.426,337.597L395.616,337.74L395.806,337.885L395.994,338.031L396.183,338.177L396.37,338.325L396.557,338.474L396.744,338.625L396.931,338.778L397.117,338.931L397.302,339.086L397.488,339.243L397.672,339.401L397.856,339.56L398.04,339.721L398.223,339.883L398.406,340.046L398.588,340.211L398.77,340.377L398.951,340.545L399.132,340.714L399.313,340.885L399.492,341.056L399.672,341.23L399.851,341.405L400.029,341.581L400.207,341.758L400.384,341.938L400.561,342.118L400.737,342.3L400.913,342.483L401.088,342.668L401.263,342.855L401.437,343.042L401.611,343.232L401.784,343.422L401.957,343.614L402.13,343.808L402.301,344.003L402.473,344.2L402.644,344.398L402.814,344.597L402.984,344.798L403.153,345.001L403.322,345.205L403.49,345.41L403.658,345.617L403.825,345.826L403.992,346.036L404.158,346.247L404.324,346.46L404.489,346.675L404.654,346.891L404.818,347.109L404.982,347.328L405.145,347.548L405.308,347.771L405.47,347.994L405.632,348.22L405.793,348.447L405.953,348.675L406.114,348.905L406.273,349.136L406.433,349.37L406.591,349.604L406.75,349.84L406.907,350.078L407.065,350.318L407.221,350.559L407.367,350.785L488.522,475.346L428.257,475.346L427.928,475.345L427.597,475.343L427.269,475.339L426.943,475.333L426.62,475.326L426.299,475.318L425.98,475.308L425.665,475.296L425.351,475.282L425.041,475.267L424.732,475.251L424.427,475.233L424.123,475.213L423.822,475.191L423.524,475.168L423.228,475.143L422.934,475.117L422.643,475.089L422.354,475.059L422.068,475.027L421.784,474.994L421.502,474.959L421.223,474.922L420.946,474.884L420.671,474.844L420.399,474.801L420.129,474.758L419.861,474.712L419.596,474.664L419.332,474.615L419.071,474.563L418.816,474.511L418.572,474.459L418.332,474.407L418.093,474.353L417.855,474.299L417.616,474.243L417.379,474.186L417.142,474.127L416.905,474.067L416.669,474.005L416.433,473.942L416.197,473.876L415.962,473.809L415.728,473.74L415.495,473.669L415.261,473.596L415.029,473.521L414.797,473.444L414.565,473.364L414.334,473.282L414.104,473.197L413.874,473.109L413.645,473.019L413.417,472.926L413.189,472.83L412.963,472.731L412.737,472.629L412.511,472.524L412.287,472.415L412.064,472.302L411.842,472.187L411.621,472.067L411.5,471.999L411.384,471.94L411.173,471.829L410.965,471.716L410.759,471.6L410.557,471.483L410.357,471.364L410.16,471.243L409.966,471.12L409.774,470.996L409.585,470.871L409.399,470.744L409.215,470.616L409.034,470.486L408.856,470.356L408.68,470.225L408.507,470.092L408.336,469.959L408.168,469.826L408.002,469.691L407.838,469.556L407.677,469.421L407.518,469.285L407.362,469.149L407.208,469.013L407.056,468.877L406.907,468.741L406.76,468.604L406.615,468.468L406.472,468.332L406.332,468.196L406.194,468.061L405.99,467.858L405.675,467.509L405.423,467.227L405.17,466.939L404.918,466.649L404.789,466.497L404.661,466.348L404.534,466.196L404.406,466.043L404.279,465.888L404.151,465.732L404.023,465.574L403.896,465.415L403.769,465.254L403.641,465.091L403.514,464.927L403.387,464.761L403.261,464.593L403.134,464.424L403.008,464.252L402.883,464.08L402.757,463.906L402.632,463.729L402.508,463.551L402.384,463.371L402.261,463.189L402.138,463.005L402.016,462.819L401.866,462.588L401.41,461.828L400.902,460.984L400.212,459.839L399.35,458.413L398.33,456.727L397.164,454.804L395.862,452.664L395.165,451.52L394.439,450.329L393.685,449.095L392.905,447.819L392.1,446.506L391.272,445.157L390.423,443.775L389.553,442.363L388.665,440.923L387.76,439.458L386.839,437.971L385.905,436.464L384.958,434.94L384,433.402L383.032,431.853L382.056,430.294L381.074,428.73L380.087,427.161L379.097,425.592L378.104,424.024L377.112,422.461L376.12,420.904L375.625,420.13L375.131,419.358L374.638,418.589L374.147,417.824L373.656,417.062L373.168,416.305L372.681,415.552L372.196,414.804L371.713,414.061L371.233,413.323L370.755,412.591L370.28,411.866L369.809,411.147L369.34,410.434L368.874,409.729L368.413,409.032L367.955,408.342L367.5,407.66L367.051,406.987L366.605,406.323L366.164,405.668L365.728,405.023L365.296,404.388L364.87,403.763L364.45,403.148L364.034,402.545L363.625,401.953L363.222,401.373L362.825,400.804L362.434,400.249L362.05,399.706L361.673,399.176L361.303,398.66L360.94,398.158L360.585,397.67L360.238,397.197L359.899,396.74L359.569,396.298L359.247,395.872L358.933,395.46L358.782,395.264L358.631,395.07L358.483,394.88L358.338,394.695L358.195,394.515L358.055,394.339L357.917,394.167L357.782,394.001L357.65,393.839L357.521,393.682L357.394,393.53L357.271,393.384L357.151,393.242L357.034,393.106L356.92,392.975L356.81,392.85L356.704,392.73L356.601,392.616L356.502,392.508L356.407,392.406L356.316,392.31L356.23,392.221L356.149,392.138L356.066,392.055L355.842,391.835L355.615,391.613L355.388,391.392L355.163,391.175L354.939,390.96L354.716,390.747L354.494,390.536L354.273,390.328L354.054,390.123L353.835,389.919L353.617,389.719L353.4,389.52L353.184,389.324L352.969,389.13L352.755,388.939L352.543,388.75L352.331,388.563L352.119,388.379L351.909,388.197L351.7,388.017L351.492,387.84L351.285,387.665L351.079,387.492L350.873,387.322L350.668,387.154L350.465,386.988L350.262,386.824L350.06,386.663L349.859,386.505L349.659,386.348L349.459,386.193L349.261,386.041L349.063,385.892L348.866,385.744L348.67,385.598L348.475,385.455L348.28,385.314L348.086,385.176L347.893,385.039L347.701,384.905L347.51,384.773L347.319,384.643L347.129,384.515L346.94,384.389L346.751,384.266L346.563,384.144L346.376,384.025L346.19,383.908L346.004,383.793L345.819,383.68L345.634,383.569L345.45,383.46L345.267,383.353L345.084,383.248L344.902,383.146L344.721,383.045L344.54,382.946L344.36,382.849L344.18,382.755L344,382.662L343.822,382.571L343.644,382.482L343.466,382.395L343.288,382.31L343.111,382.227L342.935,382.145L342.759,382.066L342.583,381.988L342.408,381.913L342.233,381.839L342.058,381.767L341.884,381.696L341.71,381.628L341.537,381.561L341.363,381.496L341.19,381.433L341.017,381.371L340.844,381.312L340.671,381.253L340.499,381.197L340.326,381.142L340.154,381.089L339.982,381.038L339.81,380.988L339.637,380.94L339.465,380.893L339.293,380.848L339.121,380.805L338.948,380.763L338.776,380.723L338.603,380.685L338.43,380.648L338.257,380.612L338.084,380.578L337.91,380.546L337.737,380.515L337.563,380.486L337.388,380.458L337.213,380.432L337.038,380.407L336.862,380.384L336.686,380.362L336.51,380.342L336.333,380.323L336.155,380.306L335.977,380.29L335.798,380.276L335.619,380.263L335.439,380.252L335.258,380.242L335.076,380.233L334.895,380.227L334.712,380.221L334.528,380.217L334.344,380.215L334.158,380.214L333.973,380.215L333.786,380.217L333.598,380.22L333.409,380.226L333.22,380.232L333.029,380.24L332.838,380.25L332.645,380.261L332.452,380.274L332.257,380.288L332.062,380.303L331.677,380.337L315.402,380.337L316.027,475.346L248.37,475.346L248.37,212.322L315.626,212.322L315.626,327.375L317.691,327.333ZM423.142,220.197L422.887,220.198L422.639,220.199L422.391,220.202L422.145,220.206L421.9,220.212L421.656,220.218L421.413,220.226L421.172,220.235L420.932,220.245L420.693,220.256L420.456,220.268L420.22,220.281L419.985,220.296L419.751,220.312L419.519,220.328L419.288,220.346L419.059,220.365L418.83,220.385L418.604,220.407L418.378,220.429L418.154,220.452L417.931,220.477L417.709,220.502L417.489,220.529L417.271,220.557L417.053,220.586L416.837,220.615L416.623,220.646L416.41,220.678L416.198,220.711L415.987,220.745L415.779,220.78L415.571,220.816L415.365,220.854L415.161,220.892L414.958,220.931L414.756,220.971L414.556,221.012L414.357,221.054L414.16,221.097L413.964,221.141L413.77,221.186L413.577,221.232L413.386,221.279L413.197,221.327L413.009,221.375L412.822,221.425L412.637,221.476L412.454,221.527L412.272,221.58L412.091,221.633L411.913,221.687L411.735,221.742L411.559,221.798L411.385,221.855L411.213,221.912L411.042,221.971L410.873,222.03L410.705,222.09L410.539,222.151L410.374,222.213L410.211,222.275L410.05,222.339L409.893,222.402L409.744,222.463L409.598,222.525L409.452,222.589L409.306,222.655L409.161,222.723L409.016,222.792L408.87,222.864L408.725,222.937L408.58,223.012L408.436,223.089L408.291,223.168L408.147,223.249L408.002,223.332L407.858,223.416L407.714,223.503L407.571,223.591L407.427,223.682L407.284,223.774L407.14,223.868L406.997,223.965L406.854,224.063L406.711,224.163L406.568,224.265L406.426,224.369L406.283,224.476L406.141,224.584L405.999,224.694L405.857,224.806L405.716,224.921L405.574,225.037L405.433,225.155L405.292,225.276L405.151,225.398L405.01,225.523L404.87,225.649L404.729,225.778L404.589,225.908L404.449,226.041L404.31,226.176L404.17,226.313L404.031,226.452L403.893,226.593L403.754,226.736L403.616,226.881L403.478,227.029L403.34,227.178L403.203,227.33L403.065,227.484L402.929,227.639L402.792,227.797L402.656,227.957L402.52,228.12L402.385,228.284L402.25,228.45L402.115,228.619L401.981,228.789L401.846,228.962L401.713,229.137L401.58,229.314L401.447,229.493L401.314,229.674L401.182,229.857L401.051,230.042L400.919,230.23L343.405,313.626L343.19,313.929L342.97,314.232L342.739,314.546L342.497,314.869L342.245,315.202L341.982,315.543L341.709,315.894L341.427,316.253L341.134,316.62L340.832,316.995L340.522,317.377L340.202,317.766L339.874,318.162L339.538,318.563L339.193,318.97L338.842,319.382L338.483,319.798L338.117,320.219L337.744,320.642L337.366,321.069L336.981,321.499L336.59,321.93L336.195,322.363L335.796,322.796L335.592,323.015L335.389,323.232L335.184,323.45L334.979,323.667L334.773,323.884L334.565,324.101L334.357,324.318L334.148,324.535L333.938,324.751L333.727,324.966L333.515,325.182L333.303,325.396L333.09,325.61L332.876,325.824L332.661,326.037L332.446,326.248L332.231,326.46L332.015,326.67L331.798,326.879L331.581,327.087L331.363,327.294L331.146,327.5L330.927,327.705L330.709,327.908L330.49,328.11L330.271,328.311L330.051,328.51L329.832,328.708L329.612,328.904L329.392,329.098L329.172,329.291L328.951,329.482L328.731,329.672L328.511,329.859L328.29,330.044L328.07,330.228L327.849,330.41L327.628,330.589L327.408,330.766L327.187,330.942L326.967,331.115L326.746,331.285L326.526,331.454L326.305,331.619L326.085,331.783L325.864,331.944L325.644,332.102L325.423,332.258L325.203,332.411L324.982,332.562L324.761,332.709L324.54,332.854L324.318,332.996L324.097,333.135L323.875,333.271L323.653,333.404L323.429,333.534L323.206,333.66L322.982,333.783L322.756,333.904L322.53,334.02L322.303,334.133L322.082,334.239L321.96,334.295L321.845,334.348L321.729,334.399L321.613,334.45L321.497,334.499L321.379,334.547L321.261,334.595L321.143,334.641L321.025,334.686L320.905,334.73L320.785,334.773L320.664,334.815L320.543,334.855L320.421,334.894L320.297,334.932L320.173,334.969L320.048,335.004L319.923,335.038L319.796,335.07L319.668,335.101L319.539,335.131L319.409,335.158L319.279,335.184L319.146,335.208L319.013,335.231L318.878,335.251L318.741,335.269L318.604,335.286L318.466,335.3L318.325,335.311L318.184,335.321L318.041,335.327L317.898,335.332L317.813,335.332L307.626,335.54L307.626,220.322L256.37,220.322L256.37,467.346L307.975,467.346L307.35,372.337L331.329,372.337L331.395,372.331L331.649,372.311L331.902,372.292L332.154,372.276L332.407,372.261L332.659,372.249L332.911,372.238L333.162,372.229L333.413,372.223L333.664,372.218L333.914,372.215L334.164,372.214L334.414,372.215L334.663,372.218L334.912,372.224L335.161,372.231L335.41,372.24L335.658,372.252L335.906,372.265L336.153,372.281L336.401,372.298L336.647,372.318L336.894,372.34L337.14,372.364L337.386,372.39L337.632,372.418L337.877,372.448L338.123,372.481L338.367,372.515L338.611,372.552L338.855,372.591L339.099,372.632L339.343,372.675L339.586,372.72L339.828,372.768L340.071,372.817L340.313,372.869L340.554,372.923L340.796,372.979L341.037,373.038L341.278,373.098L341.518,373.161L341.758,373.226L341.998,373.293L342.237,373.362L342.476,373.433L342.715,373.507L342.953,373.583L343.191,373.66L343.428,373.74L343.666,373.822L343.903,373.907L344.139,373.993L344.375,374.082L344.611,374.172L344.847,374.265L345.082,374.36L345.317,374.457L345.552,374.556L345.786,374.658L346.02,374.761L346.254,374.867L346.488,374.974L346.721,375.084L346.954,375.196L347.186,375.309L347.419,375.425L347.651,375.543L347.883,375.663L348.115,375.786L348.347,375.91L348.578,376.036L348.809,376.164L349.04,376.295L349.271,376.427L349.502,376.562L349.732,376.698L349.963,376.837L350.193,376.977L350.424,377.12L350.654,377.265L350.884,377.411L351.114,377.56L351.344,377.711L351.575,377.864L351.805,378.018L352.035,378.175L352.265,378.334L352.495,378.495L352.725,378.658L352.956,378.823L353.186,378.99L353.417,379.159L353.648,379.33L353.878,379.503L354.109,379.678L354.341,379.855L354.572,380.034L354.803,380.215L355.035,380.399L355.267,380.584L355.5,380.771L355.732,380.96L355.965,381.152L356.199,381.345L356.432,381.541L356.666,381.738L356.9,381.938L357.135,382.14L357.371,382.343L357.606,382.549L357.842,382.757L358.078,382.967L358.315,383.179L358.553,383.393L358.791,383.609L359.029,383.827L359.268,384.048L359.508,384.27L359.748,384.495L359.989,384.722L360.23,384.95L360.472,385.181L360.715,385.414L360.958,385.65L361.202,385.887L361.446,386.126L361.697,386.373L361.827,386.502L361.964,386.642L362.102,386.785L362.24,386.931L362.379,387.081L362.519,387.233L362.66,387.389L362.802,387.549L362.945,387.712L363.09,387.878L363.235,388.048L363.383,388.222L363.532,388.399L363.682,388.58L363.835,388.765L363.988,388.953L364.144,389.144L364.301,389.34L364.459,389.539L364.62,389.742L364.782,389.948L364.946,390.158L365.111,390.371L365.28,390.591L365.618,391.033L365.964,391.492L366.318,391.964L366.678,392.45L367.044,392.95L367.417,393.462L367.797,393.988L368.182,394.526L368.574,395.076L368.972,395.638L369.376,396.213L369.785,396.798L370.2,397.395L370.62,398.003L371.045,398.621L371.476,399.249L371.911,399.888L372.351,400.536L372.796,401.194L373.244,401.86L373.697,402.536L374.155,403.219L374.616,403.911L375.08,404.611L375.548,405.318L376.02,406.032L376.494,406.753L376.972,407.481L377.452,408.214L377.934,408.954L378.42,409.699L378.907,410.449L379.396,411.205L379.888,411.964L380.381,412.728L380.875,413.496L381.371,414.268L381.867,415.042L382.365,415.82L382.864,416.601L383.862,418.167L384.861,419.74L385.859,421.318L386.855,422.896L387.848,424.473L388.835,426.046L389.815,427.612L390.787,429.169L391.75,430.714L392.701,432.244L393.64,433.757L394.564,435.25L395.473,436.72L396.364,438.166L397.237,439.583L398.089,440.97L398.92,442.324L399.727,443.642L400.51,444.922L401.267,446.161L401.996,447.356L402.696,448.505L404.001,450.651L405.172,452.582L406.196,454.273L407.061,455.706L407.755,456.857L408.266,457.706L408.654,458.352L408.716,458.447L408.807,458.586L408.898,458.723L408.991,458.859L409.084,458.995L409.178,459.129L409.273,459.263L409.368,459.396L409.464,459.529L409.561,459.66L409.658,459.79L409.757,459.92L409.855,460.05L409.955,460.178L410.055,460.306L410.156,460.433L410.257,460.56L410.359,460.686L410.462,460.812L410.565,460.937L410.669,461.061L410.773,461.185L410.878,461.309L410.981,461.429L411.196,461.678L411.41,461.921L411.627,462.164L411.78,462.334L411.812,462.366L411.913,462.464L412.015,462.563L412.117,462.66L412.22,462.757L412.323,462.853L412.427,462.948L412.532,463.042L412.638,463.135L412.743,463.227L412.85,463.318L412.957,463.408L413.064,463.497L413.173,463.585L413.281,463.671L413.39,463.756L413.499,463.839L413.609,463.921L413.72,464.002L413.83,464.081L413.941,464.158L414.052,464.234L414.164,464.308L414.275,464.38L414.387,464.451L414.499,464.519L414.611,464.586L414.724,464.652L414.836,464.715L414.949,464.776L415.062,464.836L415.272,464.943L415.481,465.06L415.595,465.121L415.712,465.183L415.832,465.243L415.955,465.303L416.082,465.362L416.212,465.421L416.345,465.479L416.481,465.536L416.621,465.593L416.763,465.649L416.909,465.705L417.058,465.76L417.211,465.814L417.366,465.868L417.525,465.921L417.686,465.973L417.851,466.024L418.019,466.075L418.19,466.126L418.364,466.175L418.54,466.224L418.72,466.273L418.902,466.32L419.088,466.367L419.276,466.414L419.467,466.46L419.66,466.505L419.856,466.55L420.055,466.594L420.256,466.638L420.456,466.681L420.649,466.721L420.843,466.759L421.04,466.796L421.24,466.832L421.444,466.866L421.652,466.9L421.863,466.933L422.077,466.964L422.296,466.995L422.517,467.024L422.743,467.052L422.971,467.078L423.204,467.104L423.439,467.128L423.678,467.152L423.921,467.173L424.167,467.194L424.417,467.213L424.669,467.231L424.926,467.248L425.185,467.264L425.448,467.278L425.715,467.291L425.984,467.302L426.258,467.312L426.534,467.321L426.814,467.329L427.097,467.335L427.383,467.34L427.673,467.343L427.966,467.345L428.267,467.346L473.762,467.346L400.653,355.135L400.505,354.906L400.368,354.695L400.231,354.485L400.093,354.278L399.955,354.071L399.816,353.867L399.678,353.664L399.539,353.463L399.4,353.264L399.261,353.066L399.122,352.869L398.982,352.675L398.842,352.482L398.702,352.29L398.561,352.101L398.421,351.912L398.28,351.726L398.139,351.541L397.998,351.357L397.856,351.175L397.714,350.995L397.572,350.816L397.43,350.639L397.287,350.463L397.145,350.289L397.002,350.116L396.859,349.945L396.715,349.775L396.572,349.607L396.428,349.44L396.284,349.275L396.14,349.111L395.995,348.948L395.85,348.787L395.705,348.628L395.56,348.47L395.415,348.313L395.269,348.158L395.123,348.004L394.977,347.852L394.831,347.701L394.684,347.551L394.537,347.403L394.39,347.256L394.243,347.11L394.096,346.966L393.948,346.824L393.8,346.682L393.652,346.542L393.503,346.403L393.354,346.265L393.206,346.129L393.056,345.994L392.907,345.861L392.757,345.728L392.607,345.597L392.457,345.467L392.306,345.339L392.156,345.211L392.005,345.085L391.854,344.96L391.702,344.837L391.551,344.714L391.398,344.593L391.245,344.472L391.091,344.352L390.936,344.232L390.781,344.114L390.625,343.996L390.468,343.879L390.31,343.763L390.152,343.647L389.993,343.533L389.834,343.419L389.674,343.306L389.513,343.193L389.351,343.082L389.189,342.971L389.026,342.861L388.863,342.752L388.699,342.644L388.534,342.536L388.368,342.429L388.202,342.323L388.036,342.218L387.869,342.114L387.701,342.01L387.532,341.907L387.363,341.805L387.194,341.704L387.024,341.604L386.853,341.504L386.682,341.405L386.51,341.307L386.337,341.21L386.164,341.114L385.991,341.018L385.816,340.923L385.642,340.829L385.467,340.736L385.291,340.644L385.115,340.552L384.938,340.462L384.761,340.372L384.583,340.282L384.405,340.194L384.226,340.107L384.046,340.02L383.866,339.934L383.686,339.849L383.506,339.765L383.324,339.681L383.143,339.599L382.96,339.517L382.778,339.436L382.595,339.356L382.411,339.276L382.227,339.198L382.043,339.12L381.858,339.043L381.673,338.967L381.487,338.892L381.301,338.817L381.115,338.744L380.928,338.671L380.741,338.599L380.553,338.528L372.159,335.389L380.113,331.049L380.373,330.905L380.632,330.759L380.892,330.612L381.151,330.462L381.41,330.31L381.669,330.156L381.927,330L382.185,329.841L382.443,329.681L382.701,329.518L382.958,329.354L383.215,329.187L383.472,329.017L383.728,328.846L383.984,328.672L384.239,328.496L384.494,328.318L384.749,328.137L385.003,327.954L385.257,327.769L385.51,327.581L385.762,327.39L386.014,327.198L386.266,327.002L386.517,326.805L386.767,326.604L387.017,326.401L387.266,326.196L387.515,325.988L387.763,325.777L388.05,325.53L388.206,325.4L388.326,325.299L388.446,325.197L388.567,325.095L388.687,324.991L388.807,324.886L388.928,324.779L389.049,324.672L389.17,324.564L389.291,324.454L389.412,324.344L389.533,324.232L389.654,324.12L389.775,324.006L389.896,323.892L390.018,323.776L390.139,323.659L390.26,323.541L390.381,323.422L390.503,323.302L390.624,323.181L390.745,323.059L390.866,322.936L390.988,322.812L391.109,322.687L391.23,322.561L391.351,322.433L391.472,322.305L391.593,322.176L391.714,322.046L391.835,321.914L391.955,321.782L392.076,321.649L392.197,321.515L392.317,321.379L392.437,321.243L392.558,321.106L392.678,320.968L392.798,320.828L392.917,320.688L393.037,320.547L393.156,320.405L393.276,320.262L393.395,320.118L393.514,319.973L393.633,319.827L393.751,319.68L393.87,319.532L393.988,319.383L394.106,319.233L394.224,319.082L394.341,318.931L394.459,318.778L394.576,318.624L394.693,318.47L394.809,318.315L394.925,318.158L395.041,318.001L395.157,317.843L395.273,317.684L395.388,317.524L395.503,317.363L395.618,317.201L395.76,316.999L466.748,220.197L423.142,220.197Z"/>
        </g>
        <path d="M252.37,250.95L221.492,250.95C213.991,250.95 207.616,251.95 202.115,253.7C196.74,255.575 192.239,258.201 188.614,261.701C185.114,265.201 182.363,269.327 180.613,274.077C178.863,278.828 177.988,284.203 177.988,290.079C177.988,303.33 181.363,313.581 188.114,320.957C194.864,328.332 205.991,331.958 221.367,331.958L252.37,331.958L252.37,250.95ZM221.492,376.587C203.865,376.587 188.614,374.462 175.738,370.211C162.861,365.961 152.235,359.961 143.735,352.46C135.359,344.834 129.108,335.708 124.983,325.082C120.857,314.456 118.857,302.83 118.857,290.079C118.857,278.328 120.857,267.327 124.858,257.201C128.858,247.075 134.984,238.199 143.36,230.698C151.735,223.197 162.361,217.322 175.238,213.071C188.114,208.821 203.615,206.696 221.617,206.696L311.626,206.696L311.626,461.97L252.37,461.97L252.37,376.712L221.492,376.712L221.492,376.587Z" style="fill:rgb(248,153,29);fill-rule:nonzero;"/>
        <path d="M311.626,331.208L317.752,331.083C323.502,331.083 336.253,316.582 340.129,311.081L397.634,227.698C400.76,223.198 404.385,220.072 408.385,218.447C412.386,216.822 417.386,215.947 423.137,215.947L474.642,215.947L399.009,319.082C396.384,322.832 393.509,325.957 390.634,328.333C387.758,330.833 384.758,332.833 381.758,334.458C386.133,336.083 390.259,338.334 393.884,341.209C397.509,344.084 400.885,347.835 404.01,352.71L481.142,471.096L428.262,471.096C424.887,471.096 422.012,470.846 419.636,470.346C417.261,469.846 415.136,469.221 413.386,468.221C411.636,467.346 410.136,466.096 408.885,464.846C407.635,463.471 406.385,461.971 405.26,460.22C405.26,460.22 367.881,397.839 358.881,388.964C348.755,378.963 341.129,375.212 331.503,376.087L311.376,376.087L312.001,471.096L252.37,471.096L252.37,216.072L311.626,216.072L311.626,331.208Z" style="fill:rgb(248,153,29);fill-rule:nonzero;"/>
    </g>
</svg>
